<?xml version="1.0" encoding="UTF-8" standalone="no"?>
<svg
   version="1.1"
   viewBox="0 0 255.99999 256.00001"
   width="256"
   height="256"
   id="svg4"
   sodipodi:docname="arrow.svg"
   inkscape:version="1.3 (1:1.3+202307231459+0e150ed6c4)"
   xmlns:inkscape="http://www.inkscape.org/namespaces/inkscape"
   xmlns:sodipodi="http://sodipodi.sourceforge.net/DTD/sodipodi-0.dtd"
   xmlns="http://www.w3.org/2000/svg"
   xmlns:svg="http://www.w3.org/2000/svg">
  <sodipodi:namedview
     id="namedview4"
     pagecolor="#505050"
     bordercolor="#eeeeee"
     borderopacity="1"
     inkscape:showpageshadow="0"
     inkscape:pageopacity="0"
     inkscape:pagecheckerboard="0"
     inkscape:deskcolor="#505050"
     inkscape:zoom="1.571625"
     inkscape:cx="49.630159"
     inkscape:cy="111.03157"
     inkscape:window-width="1916"
     inkscape:window-height="1045"
     inkscape:window-x="0"
     inkscape:window-y="0"
     inkscape:window-maximized="1"
     inkscape:current-layer="g4" />
  <!-- svg-source:excalidraw -->
  <defs
     id="defs1">
    <style
       class="style-fonts"
       id="style1">&#10;      @font-face {&#10;        font-family: &quot;Virgil&quot;;&#10;        src: url(&quot;https://excalidraw.com/Virgil.woff2&quot;);&#10;      }&#10;      @font-face {&#10;        font-family: &quot;Cascadia&quot;;&#10;        src: url(&quot;https://excalidraw.com/Cascadia.woff2&quot;);&#10;      }&#10;    </style>
  </defs>
  <g
     stroke-linecap="round"
     id="g4">
    <g
       transform="rotate(68.721375,19.049662,70.976487)"
       id="g1">
      <path
         d="m 0.58,-8.34 c 22.86,1.82 105.3,29.14 133.83,13.83 28.52,-15.31 31.29,-88.2 37.31,-105.69 M -2.55,-11.29 c 22.93,1.95 106.84,35.06 135.83,19.39 28.98,-15.67 31.65,-94.61 38.09,-113.4"
         stroke="#1e1e1e"
         stroke-width="2"
         fill="none"
         id="path1" />
    </g>
    <g
       transform="rotate(68.721375,19.049662,70.976487)"
       id="g2">
      <path
         d="m 174.99,-72.79 c -2.83,-4.99 0.02,-12.66 -1.41,-29.2 m 2.97,26.66 c -2.72,-9.4 -2.04,-15.17 -4.86,-31.75"
         stroke="#1e1e1e"
         stroke-width="2"
         fill="none"
         id="path2" />
    </g>
    <g
       transform="rotate(68.721375,19.049662,70.976487)"
       id="g3">
      <path
         d="m 154.82,-76.57 c 1.28,-4.31 8.18,-11.22 18.76,-25.42 m -17.2,22.88 c 2.31,-8.75 7.98,-13.58 15.31,-27.97"
         stroke="#1e1e1e"
         stroke-width="2"
         fill="none"
         id="path3" />
    </g>
  </g>
  <mask
     id="mask4" />
</svg>
